<?xml version="1.0" encoding="UTF-8" standalone="no"?>
<svg
   xmlns:dc="http://purl.org/dc/elements/1.1/"
   xmlns:cc="http://creativecommons.org/ns#"
   xmlns:rdf="http://www.w3.org/1999/02/22-rdf-syntax-ns#"
   xmlns:svg="http://www.w3.org/2000/svg"
   xmlns="http://www.w3.org/2000/svg"
   xmlns:sodipodi="http://sodipodi.sourceforge.net/DTD/sodipodi-0.dtd"
   xmlns:inkscape="http://www.inkscape.org/namespaces/inkscape"
   width="120.77343pt"
   height="117.79564pt"
   viewBox="0 0 120.77344 117.79564"
   version="1.2"
   id="svg192"
   sodipodi:docname="icon_GitHub.svg"
   inkscape:version="0.92.3 (2405546, 2018-03-11)">
  <metadata
     id="metadata196">
    <rdf:RDF>
      <cc:Work
         rdf:about="">
        <dc:format>image/svg+xml</dc:format>
        <dc:type
           rdf:resource="http://purl.org/dc/dcmitype/StillImage" />
        <dc:title></dc:title>
      </cc:Work>
    </rdf:RDF>
  </metadata>
  <sodipodi:namedview
     pagecolor="#ffffff"
     bordercolor="#666666"
     borderopacity="1"
     objecttolerance="10"
     gridtolerance="10"
     guidetolerance="10"
     inkscape:pageopacity="0"
     inkscape:pageshadow="2"
     inkscape:window-width="1920"
     inkscape:window-height="1017"
     id="namedview194"
     showgrid="false"
     fit-margin-top="0"
     fit-margin-left="0"
     fit-margin-right="0"
     fit-margin-bottom="0"
     inkscape:zoom="0.70801417"
     inkscape:cx="-576.62886"
     inkscape:cy="-107.91538"
     inkscape:window-x="-8"
     inkscape:window-y="-8"
     inkscape:window-maximized="1"
     inkscape:current-layer="surface72" />
  <defs
     id="defs5">
    <clipPath
       id="clip1">
      <path
         d="M 0,224 H 530.96875 V 499.98828 H 0 Z m 0,0"
         id="path2"
         inkscape:connector-curvature="0" />
    </clipPath>
  </defs>
  <g
     id="surface72"
     transform="translate(-290.22266,-6.433594)">
    <path
       style="fill:#4d4d4d;fill-opacity:1;fill-rule:evenodd;stroke:none"
       d="m 350.60937,6.433594 c -33.34765,0 -60.38671,27.039062 -60.38671,60.390625 0,26.679687 17.30078,49.316411 41.29687,57.300781 3.01563,0.55859 4.125,-1.30859 4.125,-2.90625 0,-1.4375 -0.0547,-6.19531 -0.082,-11.24219 -16.80078,3.65235 -20.34375,-7.125 -20.34375,-7.125 -2.75,-6.980466 -6.70703,-8.835935 -6.70703,-8.835935 -5.48047,-3.746094 0.41406,-3.671875 0.41406,-3.671875 6.0625,0.425781 9.25781,6.226563 9.25781,6.226563 5.38282,9.230467 14.125,6.562497 17.57032,5.019527 0.54296,-3.906246 2.10937,-6.570309 3.83593,-8.078121 -13.41406,-1.527344 -27.51562,-6.703125 -27.51562,-29.84375 0,-6.59375 2.35937,-11.980469 6.22265,-16.207031 -0.625,-1.523438 -2.6914,-7.664063 0.58594,-15.980469 0,0 5.07031,-1.625 16.60938,6.1875 4.82031,-1.335938 9.98437,-2.007813 15.11718,-2.03125 5.13282,0.02344 10.30079,0.695312 15.12891,2.03125 11.52344,-7.8125 16.58984,-6.1875 16.58984,-6.1875 3.28516,8.316406 1.21875,14.457031 0.58985,15.980469 3.87109,4.226562 6.21484,9.613281 6.21484,16.207031 0,23.195312 -14.125,28.300781 -27.57422,29.796875 2.16797,1.875 4.09766,5.550781 4.09766,11.183596 0,8.07812 -0.0703,14.58203 -0.0703,16.57031 0,1.60938 1.08593,3.49219 4.14843,2.89844 23.98047,-7.9961 41.26172,-30.621096 41.26172,-57.292971 0,-33.351563 -27.03515,-60.390625 -60.38672,-60.390625"
       id="path13"
       inkscape:connector-curvature="0" />
    <path
       style="fill:#4d4d4d;fill-opacity:1;fill-rule:nonzero;stroke:none"
       d="m 313.09375,93.140625 c -0.13281,0.300781 -0.60547,0.386719 -1.03516,0.183594 -0.4375,-0.199219 -0.68359,-0.605469 -0.54297,-0.910156 0.12891,-0.304688 0.60157,-0.390625 1.03907,-0.1875 0.4414,0.199218 0.6914,0.613281 0.53906,0.914062"
       id="path15"
       inkscape:connector-curvature="0" />
    <path
       style="fill:#4d4d4d;fill-opacity:1;fill-rule:nonzero;stroke:none"
       d="m 315.53906,95.867188 c -0.28906,0.265625 -0.85156,0.144531 -1.23437,-0.277344 -0.39453,-0.421875 -0.46875,-0.984375 -0.17578,-1.257813 0.29687,-0.265625 0.84375,-0.140625 1.23828,0.28125 0.39453,0.425782 0.47265,0.984375 0.17187,1.253907"
       id="path17"
       inkscape:connector-curvature="0" />
    <path
       style="fill:#4d4d4d;fill-opacity:1;fill-rule:nonzero;stroke:none"
       d="m 317.92187,99.34375 c -0.37109,0.257813 -0.97656,0.01563 -1.35156,-0.519531 -0.37109,-0.539063 -0.37109,-1.179688 0.008,-1.4375 0.375,-0.257813 0.97266,-0.02734 1.35157,0.503906 0.36718,0.546875 0.36718,1.191406 -0.008,1.453125"
       id="path19"
       inkscape:connector-curvature="0" />
    <path
       style="fill:#4d4d4d;fill-opacity:1;fill-rule:nonzero;stroke:none"
       d="m 321.18359,102.70313 c -0.33203,0.36718 -1.03906,0.26953 -1.55468,-0.23047 -0.52735,-0.48438 -0.67579,-1.17578 -0.34375,-1.54297 0.33593,-0.36328 1.04687,-0.26172 1.5664,0.23047 0.52344,0.48828 0.6836,1.18359 0.33203,1.54297"
       id="path21"
       inkscape:connector-curvature="0" />
    <path
       style="fill:#4d4d4d;fill-opacity:1;fill-rule:nonzero;stroke:none"
       d="m 325.68359,104.65625 c -0.14843,0.47266 -0.82812,0.6875 -1.51172,0.48828 -0.68359,-0.20703 -1.1289,-0.76172 -0.99218,-1.24219 0.14453,-0.47265 0.82422,-0.69921 1.51562,-0.48437 0.67969,0.20703 1.12891,0.75781 0.98828,1.23828"
       id="path23"
       inkscape:connector-curvature="0" />
    <path
       style="fill:#4d4d4d;fill-opacity:1;fill-rule:nonzero;stroke:none"
       d="m 330.625,105.01953 c 0.0156,0.4961 -0.5625,0.91016 -1.28125,0.91797 -0.72266,0.0156 -1.30859,-0.38672 -1.31641,-0.875 0,-0.50391 0.57032,-0.91406 1.28907,-0.92578 0.71875,-0.0156 1.30859,0.38672 1.30859,0.88281"
       id="path25"
       inkscape:connector-curvature="0" />
    <path
       style="fill:#4d4d4d;fill-opacity:1;fill-rule:nonzero;stroke:none"
       d="m 335.22266,104.23438 c 0.0859,0.48828 -0.41407,0.98437 -1.125,1.11718 -0.70313,0.12891 -1.35157,-0.17187 -1.44141,-0.65234 -0.0859,-0.5 0.42187,-0.99609 1.12109,-1.125 0.71485,-0.125 1.35547,0.16797 1.44532,0.66016"
       id="path27"
       inkscape:connector-curvature="0" />
  </g>
</svg>
