<?xml version="1.0" encoding="UTF-8" standalone="no"?>
<!DOCTYPE svg PUBLIC "-//W3C//DTD SVG 1.1//EN" "http://www.w3.org/Graphics/SVG/1.1/DTD/svg11.dtd">
<svg width="300" height="88.1087646484375" xmlns="http://www.w3.org/2000/svg" xmlns:xlink="http://www.w3.org/1999/xlink" version="1.1">
 <desc>Logo of University College London</desc>
 <g>
  <path fill="#231f20" fill-rule="nonzero" id="path22" d="m0,0l0,88.11877l108.99686,-0.0004c-0.84039,-0.59499 -1.6226,-1.22558 -2.32097,-1.89326c-6.2251,-6.01905 -6.3119,-13.01046 -6.48945,-19.56145l0,-37.17539l19.91419,0l0,39.03551c0,2.65634 0.09074,5.39958 2.31208,7.52249c1.59894,1.68327 4.0008,2.30125 6.31092,2.30125c3.11203,0 5.1588,-1.15221 6.31485,-2.21129c2.30913,-2.21287 2.3979,-4.95611 2.3979,-7.61245l0,-39.03551l20.00298,0l0,33.28152c0,7.16738 0,16.4632 -7.37819,23.45532c-0.70526,0.66058 -1.48352,1.29118 -2.32294,1.89326l29.82144,0c-8.77885,-6.29848 -12.90393,-16.82304 -12.90393,-27.03186c0,-16.81712 11.29219,-33.90106 32.53796,-33.90106c9.51274,0 18.57964,3.36525 25.15981,10.0938c2.66818,2.74275 3.91301,4.86644 5.24463,7.34336l-16.62262,8.23457c-1.60286,-3.72016 -4.62418,-10.35767 -12.98186,-10.35767c-4.35588,0 -7.11185,2.0365 -8.44543,3.36437c-4.71201,4.51233 -4.71201,11.59391 -4.71201,14.07586c0,9.29109 3.47012,18.05583 13.24818,18.05583c9.2464,0 12.0024,-8.1452 12.71358,-10.2681l16.88992,8.14282c-1.60092,3.00909 -3.11108,5.8415 -6.13139,8.84988c-1.29808,1.27058 -2.70273,2.39911 -4.18623,3.3982l18.26399,0l0,-58.71937l19.82245,0l0,46.15082l25.72501,0l0,12.56855l18.81827,-0.00961l0,-88.10876l-299.99999,0"/>
  <path fill="#ffffff" fill-rule="nonzero" id="path24" d="m90.1015,43.51408c-0.03848,-0.00809 -10.72798,-2.30471 -10.72798,-2.30471c0,0 -10.70332,2.29969 -10.72403,2.30471c-0.05821,0.01154 -0.03848,0.06126 -0.03848,0.06126l0.14796,0.54839l0.03059,-0.00079l-0.00394,0.00079c0,0 0.16573,-0.02052 0.26241,0.13248l0.15981,0.88171c0,0 0.00394,0.06166 0.06707,0.06166c0.06612,0 0.3877,0 0.3877,0l19.42281,0c0,0 0.33739,0 0.39163,0c0.05427,0 0.0592,-0.04548 0.0592,-0.04548l0.16077,-0.88171c0.09176,-0.17263 0.27128,-0.14866 0.27128,-0.14866l-0.00391,-0.00079l0.0266,0.00079l0.14896,-0.54839c0,0 0.02071,-0.04972 -0.03848,-0.06126"/>
  <path fill="#ffffff" fill-rule="nonzero" id="path26" d="m88.97987,45.4832c0.01183,0 0.02267,-0.00927 0.02267,-0.02427l0,-0.27365c0,-0.01381 -0.01083,-0.00227 -0.02267,-0.00227l-1.62968,0c-0.01182,0 -0.02564,-0.01154 -0.02564,0.00227l0,0.27365c0,0.01499 0.01382,0.02427 0.02564,0.02427l0.06905,0.00079c0.03255,0 0.03453,0.03275 0.03453,0.06471c0,0.04084 0.01775,0.25274 0.16573,0.38068c0.02171,0.01854 0.0158,0.07053 -0.03059,0.07053c-0.00391,0 -0.04636,0 -0.05032,0c-0.0365,0 -0.03846,0.02506 -0.0266,0.04469c0.01281,0.02466 0.01675,0.09716 0.01675,0.1306c0,0.03433 0,0.0948 0,0.11907c0,0.02161 0.00198,0.03897 0.02367,0.03897c0.00198,0 0.0227,0 0.02467,0c0,0 0.01577,-0.00197 0.01577,0.01736c0,0.01578 0,0.02347 0,0.02347l0,5.99406c-0.01775,0.01845 -0.08086,0.08286 -0.08678,0.08739c-0.00397,0.00504 -0.00988,0.01273 -0.00988,0.022l0,0.1017c0,0.0074 -0.00198,0.01736 -0.0079,0.02161c-0.00393,0.00503 -0.01282,0.0073 -0.02269,0.0073l-0.07498,0c-0.01379,0 -0.02563,0.01194 -0.02563,0.02466c0,0 0,0.16692 0,0.17303l1.59713,0c0,-0.00611 0,-0.17303 0,-0.17303c0,-0.01272 -0.01086,-0.02466 -0.02269,-0.02466l-0.07497,0c-0.00986,0 -0.01778,-0.00227 -0.02368,-0.0073c-0.00394,-0.00425 -0.0069,-0.01421 -0.0069,-0.02161l0,-0.1017c0,-0.00769 -0.00198,-0.01391 -0.00986,-0.02121c-0.00985,-0.00809 -0.06213,-0.06165 -0.0868,-0.08819l0,-5.99406c0,0 0,-0.00769 0,-0.02347c0,-0.01934 0.01577,-0.01736 0.01577,-0.01736c0.001,0 0.02071,0 0.0227,0c0.02071,0 0.02467,-0.01736 0.02467,-0.03897c0,-0.02427 0,-0.08474 0,-0.11907c0,-0.03344 0.00594,-0.10594 0.01778,-0.1306c0.0138,-0.01963 0.00985,-0.04469 -0.02861,-0.04469c-0.00198,0 -0.04636,0 -0.04834,0c-0.04636,0 -0.05229,-0.05238 -0.03256,-0.07053c0.14996,-0.12212 0.16573,-0.33481 0.16573,-0.37605c0,-0.0366 -0.00198,-0.06935 0.03848,-0.06935l0.06709,-0.00079"/>
  <path fill="#ffffff" fill-rule="nonzero" id="path28" d="m85.466,45.4832c0.01086,0 0.02267,-0.00927 0.02267,-0.02427l0,-0.27365c0,-0.01381 -0.01183,-0.00227 -0.02267,-0.00227l-1.63264,0c-0.01281,0 -0.02268,-0.01154 -0.02268,0.00227l0,0.27365c0,0.01499 0.00987,0.02427 0.02268,0.02427l0.07103,0.00079c0.03157,0 0.03354,0.03275 0.03354,0.06471c0,0.04084 0.01875,0.25274 0.16573,0.38068c0.02071,0.01854 0.01283,0.07053 -0.0296,0.07053c-0.00391,0 -0.04734,0 -0.04931,0c-0.03848,0 -0.04242,0.02506 -0.03156,0.04469c0.01577,0.02466 0.01775,0.09716 0.01775,0.1306c0,0.03433 0,0.0948 0,0.11907c0,0.02161 0.00394,0.03897 0.02466,0.03897l0.02367,0c0,0 0.01677,-0.00197 0.01677,0.01736c0,0.01578 0.00197,0.02347 0.00197,0.02347l0,5.99406c-0.01874,0.01845 -0.08482,0.08286 -0.08877,0.08739c-0.00494,0.00504 -0.0089,0.01273 -0.0089,0.022l0,0.1017c0,0.0074 0,0.01736 -0.00787,0.02161c-0.00394,0.00503 -0.01183,0.0073 -0.02171,0.0073l-0.07693,0c-0.01086,0 -0.02074,0.01194 -0.02074,0.02466c0,0 0,0.16692 0,0.17303l1.59319,0c0,-0.00611 0,-0.17303 0,-0.17303c0,-0.01272 -0.01186,-0.02466 -0.02271,-0.02466l-0.07594,0c-0.0089,0 -0.01875,-0.00227 -0.02271,-0.0073c-0.00592,-0.00425 -0.0079,-0.01421 -0.0079,-0.02161l0,-0.1017c0,-0.00769 -0.00197,-0.01391 -0.00986,-0.02121c-0.0069,-0.00809 -0.05917,-0.06165 -0.0868,-0.08819l0,-5.99406c0,0 0,-0.00769 0,-0.02347c0,-0.01934 0.01775,-0.01736 0.01775,-0.01736c0.00198,0 0.01973,0 0.02171,0c0.02074,0 0.02268,-0.01736 0.02268,-0.03897c0,-0.02427 0,-0.08474 0,-0.11907c0,-0.03344 0.0079,-0.10594 0.02074,-0.1306c0.00986,-0.01963 0.00591,-0.04469 -0.03058,-0.04469c-0.00198,0 -0.0444,0 -0.04834,0c-0.04636,0 -0.0513,-0.05238 -0.03059,-0.07053c0.14994,-0.12212 0.16573,-0.33481 0.16573,-0.37605c0,-0.0366 -0.00198,-0.06935 0.03651,-0.06935l0.07005,-0.00079"/>
  <path fill="#ffffff" fill-rule="nonzero" id="path30" d="m81.9492,45.4832c0.01379,0 0.02171,-0.00927 0.02171,-0.02427l0,-0.27365c0,-0.01381 -0.0079,-0.00227 -0.02171,-0.00227l-1.63165,0c-0.01379,0 -0.02367,-0.01154 -0.02367,0.00227l0,0.27365c0,0.01499 0.00987,0.02427 0.02367,0.02427l0.07103,0.00079c0.03059,0 0.03256,0.03275 0.03256,0.06471c0,0.04084 0.01971,0.25274 0.16769,0.38068c0.01972,0.01854 0.01184,0.07053 -0.03059,0.07053c-0.00392,0 -0.04834,0 -0.05032,0c-0.03846,0 -0.04044,0.02506 -0.02859,0.04469c0.01283,0.02466 0.01675,0.09716 0.01675,0.1306c0,0.03433 0,0.0948 0,0.11907c0,0.02161 0.00198,0.03897 0.02171,0.03897c0.00198,0 0.02467,0 0.02663,0c0,0 0.01775,-0.00197 0.01775,0.01736c0,0.01578 0,0.02347 0,0.02347l0,5.99406c-0.01775,0.01845 -0.08285,0.08286 -0.08878,0.08739c-0.00593,0.00504 -0.00986,0.01273 -0.00986,0.022l0,0.1017c0,0.0074 -0.00198,0.01736 -0.00593,0.02161c-0.00591,0.00503 -0.01479,0.0073 -0.02268,0.0073l-0.07497,0c-0.01183,0 -0.02367,0.01194 -0.02367,0.02466c0,0 0,0.16692 0,0.17303l1.59418,0c0,-0.00611 0,-0.17303 0,-0.17303c0,-0.01272 -0.01186,-0.02466 -0.02367,-0.02466l-0.07497,0c-0.00988,0 -0.01974,-0.00227 -0.02367,-0.0073c-0.00296,-0.00425 -0.00691,-0.01421 -0.00691,-0.02161l0,-0.1017c0,-0.00769 -0.00197,-0.01391 -0.0079,-0.02121c-0.00983,-0.00809 -0.06015,-0.06165 -0.08877,-0.08819l0,-5.99406c0,0 0,-0.00769 0,-0.02347c0,-0.01934 0.01775,-0.01736 0.01775,-0.01736c0.00198,0 0.01874,0 0.01874,0c0.02564,0 0.02664,-0.01736 0.02664,-0.03897c0,-0.02427 0,-0.08474 0,-0.11907c0,-0.03344 0.00592,-0.10594 0.01974,-0.1306c0.00986,-0.01963 0.00986,-0.04469 -0.02861,-0.04469c-0.00197,0 -0.04636,0 -0.0503,0c-0.04637,0 -0.05229,-0.05238 -0.02862,-0.07053c0.14796,-0.12212 0.16177,-0.33481 0.16177,-0.37605c0,-0.0366 0,-0.06935 0.03848,-0.06935l0.06905,-0.00079"/>
  <path fill="#ffffff" fill-rule="nonzero" id="path32" d="m78.4334,45.4832c0.01283,0 0.02269,-0.00927 0.02269,-0.02427l0,-0.27365c0,-0.01381 -0.00986,-0.00227 -0.02269,-0.00227l-1.63262,0c-0.01281,0 -0.02071,-0.01154 -0.02071,0.00227l0,0.27365c0,0.01499 0.0079,0.02427 0.02071,0.02427l0.07004,0.00079c0.03255,0 0.03453,0.03275 0.03453,0.06471c0,0.04084 0.01875,0.25274 0.16769,0.38068c0.02071,0.01854 0.01086,0.07053 -0.03156,0.07053c-0.00294,0 -0.04736,0 -0.04933,0c-0.03846,0 -0.04044,0.02506 -0.02958,0.04469c0.0138,0.02466 0.01775,0.09716 0.01775,0.1306c0,0.03433 0,0.0948 0,0.11907c0,0.02161 0.00198,0.03897 0.02467,0.03897c0,0 0.0217,0 0.02367,0c0,0 0.01677,-0.00197 0.01677,0.01736c0,0.01578 0,0.02347 0,0.02347l0,5.99406c-0.01677,0.01845 -0.08286,0.08286 -0.08779,0.08739c-0.00394,0.00504 -0.00789,0.01273 -0.00789,0.022l0,0.1017c0,0.0074 -0.00198,0.01736 -0.0079,0.02161c-0.00591,0.00503 -0.01578,0.0073 -0.02368,0.0073l-0.07497,0c-0.01281,0 -0.02268,0.01194 -0.02268,0.02466c0,0 0,0.16692 0,0.17303l1.59318,0c0,-0.00611 0,-0.17303 0,-0.17303c0,-0.01272 -0.00986,-0.02466 -0.02267,-0.02466l-0.07597,0c-0.0089,0 -0.01678,-0.00227 -0.02267,-0.0073c-0.00397,-0.00425 -0.00592,-0.01421 -0.00592,-0.02161l0,-0.1017c0,-0.00769 -0.00198,-0.01391 -0.00988,-0.02121c-0.00887,-0.00809 -0.06115,-0.06165 -0.08582,-0.08819l0,-5.99406c0,0 -0.00198,-0.00769 -0.00198,-0.02347c0,-0.01934 0.01675,-0.01736 0.01675,-0.01736c0.00198,0 0.0217,0 0.02368,0c0.01875,0 0.02269,-0.01736 0.02269,-0.03897c0,-0.02427 0,-0.08474 0,-0.11907c0,-0.03344 0.00592,-0.10594 0.01974,-0.1306c0.01083,-0.01963 0.00689,-0.04469 -0.02959,-0.04469c-0.00394,0 -0.04636,0 -0.04833,0c-0.04735,0 -0.05328,-0.05238 -0.03256,-0.07053c0.15092,-0.12212 0.16573,-0.33481 0.16573,-0.37605c0,-0.0366 -0.00198,-0.06935 0.03651,-0.06935l0.07003,-0.00079"/>
  <path fill="#ffffff" fill-rule="nonzero" id="path34" d="m74.91659,45.4832c0.0138,0 0.02367,-0.00927 0.02367,-0.02427l0,-0.27365c0,-0.01381 -0.00987,-0.00227 -0.02367,-0.00227l-1.62968,0c-0.0138,0 -0.02368,-0.01154 -0.02368,0.00227l0,0.27365c0,0.01499 0.00988,0.02427 0.02368,0.02427l0.06708,0.00079c0.03453,0 0.03651,0.03275 0.03651,0.06471c0,0.04084 0.01973,0.25274 0.16769,0.38068c0.01974,0.01854 0.01186,0.07053 -0.03255,0.07053c-0.00199,0 -0.04834,0 -0.05032,0c-0.03847,0 -0.04044,0.02506 -0.02859,0.04469c0.0138,0.02466 0.01677,0.09716 0.01677,0.1306c0,0.03433 0,0.0948 0,0.11907c0,0.02161 0.00197,0.03897 0.02565,0.03897c0.00198,0 0.02071,0 0.02269,0c0,0 0.01774,-0.00197 0.01774,0.01736c0,0.01578 0,0.02347 0,0.02347l0,5.99406c-0.01774,0.01845 -0.08285,0.08286 -0.08678,0.08739c-0.00594,0.00504 -0.0099,0.01273 -0.0099,0.022l0,0.1017c0,0.0074 -0.00198,0.01736 -0.00789,0.02161c-0.00294,0.00503 -0.01283,0.0073 -0.02269,0.0073l-0.07301,0c-0.01379,0 -0.02563,0.01194 -0.02563,0.02466c0,0 0,0.16692 0,0.17303l1.59416,0c0,-0.00611 0,-0.17303 0,-0.17303c0,-0.01272 -0.00988,-0.02466 -0.02171,-0.02466l-0.07696,0c-0.00788,0 -0.01579,-0.00227 -0.02071,-0.0073c-0.00592,-0.00425 -0.0079,-0.01421 -0.0079,-0.02161l0,-0.1017c0,-0.00769 -0.00198,-0.01391 -0.00989,-0.02121c-0.00787,-0.00809 -0.06213,-0.06165 -0.08876,-0.08819l0,-5.99406c0,0 0,-0.00769 0,-0.02347c0,-0.01934 0.01775,-0.01736 0.01775,-0.01736c0.00197,0 0.02071,0 0.02071,0c0.02367,0 0.02567,-0.01736 0.02567,-0.03897c0,-0.02427 0,-0.08474 0,-0.11907c0,-0.03344 0.00494,-0.10594 0.01875,-0.1306c0.0138,-0.01963 0.00984,-0.04469 -0.02862,-0.04469c-0.00198,0 -0.04636,0 -0.05032,0c-0.04636,0 -0.05228,-0.05238 -0.03059,-0.07053c0.14996,-0.12212 0.16573,-0.33481 0.16573,-0.37605c0,-0.0366 -0.00198,-0.06935 0.03651,-0.06935l0.06905,-0.00079"/>
  <path fill="#ffffff" fill-rule="nonzero" id="path36" d="m71.40078,45.4832c0.0128,0 0.02466,-0.00927 0.02466,-0.02427l0,-0.27365c0,-0.01381 -0.01186,-0.00227 -0.02466,-0.00227l-1.63066,0c-0.01282,0 -0.02269,-0.01154 -0.02269,0.00227l0,0.27365c0,0.01499 0.00987,0.02427 0.02269,0.02427l0.07004,0.00079c0.03256,0 0.03455,0.03275 0.03455,0.06471c0,0.04084 0.01874,0.25274 0.16769,0.38068c0.01875,0.01854 0.01087,0.07053 -0.03156,0.07053c-0.00294,0 -0.04734,0 -0.05128,0c-0.03648,0 -0.03848,0.02506 -0.0276,0.04469c0.01379,0.02466 0.01578,0.09716 0.01578,0.1306c0,0.03433 0,0.0948 0,0.11907c0,0.02161 0.00196,0.03897 0.02466,0.03897l0.02367,0c0,0 0.01675,-0.00197 0.01675,0.01736c0,0.01578 0,0.02347 0,0.02347l0,5.99406c-0.01675,0.01845 -0.08086,0.08286 -0.08581,0.08739c-0.00594,0.00504 -0.00988,0.01273 -0.00988,0.022l0,0.1017c0,0.0074 -0.00197,0.01736 -0.00591,0.02161c-0.00591,0.00503 -0.01579,0.0073 -0.02368,0.0073l-0.07497,0c-0.01283,0 -0.02466,0.01194 -0.02466,0.02466c0,0 0,0.16692 0,0.17303l1.59515,0c0,-0.00611 0,-0.17303 0,-0.17303c0,-0.01272 -0.00987,-0.02466 -0.0227,-0.02466l-0.07697,0c-0.00787,0 -0.01775,-0.00227 -0.02168,-0.0073c-0.00592,-0.00425 -0.0079,-0.01421 -0.0079,-0.02161l0,-0.1017c0,-0.00769 -0.00196,-0.01391 -0.00789,-0.02121c-0.00887,-0.00809 -0.06313,-0.06165 -0.08781,-0.08819l0,-5.99406c0,0 0,-0.00769 0,-0.02347c0,-0.01934 0.0148,-0.01736 0.0148,-0.01736c0.00198,0 0.02171,0 0.02171,0c0.02269,0 0.02663,-0.01736 0.02663,-0.03897c0,-0.02427 0,-0.08474 0,-0.11907c0,-0.03344 0.00396,-0.10594 0.01974,-0.1306c0.00888,-0.01963 0.0069,-0.04469 -0.02959,-0.04469c-0.00394,0 -0.04636,0 -0.04932,0c-0.04833,0 -0.05228,-0.05238 -0.03156,-0.07053c0.14896,-0.12212 0.16375,-0.33481 0.16375,-0.37605c0,-0.0366 -0.00198,-0.06935 0.03848,-0.06935l0.06805,-0.00079"/>
  <path fill="#ffffff" fill-rule="nonzero" id="path38" d="m84.3651,39.1346c0,0 -0.13219,0 -0.16769,0c-0.0444,0 -0.04241,-0.0366 -0.04241,-0.0366c0,0 0,-0.14412 0,-0.18072c0,-0.04627 -0.0454,-0.04627 -0.0454,-0.04627c0,0 -0.12331,0 -0.16473,0c-0.04538,0 -0.0434,-0.04123 -0.0434,-0.04123l0,-0.16682c0,0 0,-0.0366 -0.0424,-0.0366c-0.01579,0 -0.07204,0 -0.09866,0c-0.03452,0 -0.07104,-0.0289 -0.07301,-0.07664c-0.00591,-0.22778 0.07301,-1.83623 -0.77634,-3.00028c-0.66884,-0.99999 -1.59022,-1.50793 -2.09824,-1.7441c-0.00988,-0.21692 -0.31863,-0.299 -0.4528,-0.34606c-0.07201,-0.02387 -0.13316,-0.05238 -0.13316,-0.11561c0,-0.00345 -0.00198,-0.07053 -0.00198,-0.07399c0,-0.06737 0.06214,-0.09441 0.1539,-0.09174c0.02958,0.00119 0.05032,-0.02387 0.05032,-0.04232l0,-0.19542c0,-0.02772 -0.02467,-0.0589 -0.06512,-0.0589c-0.06805,0 -0.145,-0.00039 -0.18347,-0.00039c-0.0444,0 -0.06512,-0.04005 -0.06512,-0.06443c0,-0.03965 0,-0.0219 0,-0.09786c0,-0.0574 -0.0444,-0.08977 -0.0789,-0.10673l0,-1.20036c0,-0.04044 0.03056,-0.03502 0.05721,-0.03502c0.00394,0 0.00986,0 0.01382,-0.00158l0.00393,0c0.01482,0 0.02862,-0.01381 0.02862,-0.0293l0,-0.11444c0,-0.01657 -0.01379,-0.02851 -0.02862,-0.02851l-0.05424,0c-0.01878,-0.00888 -0.03255,-0.03393 -0.03255,-0.0875c0,-0.05544 0.01675,-0.08168 0.04044,-0.08632l0.04636,0c0.01482,0 0.02862,-0.01273 0.02862,-0.02851l0,-0.1163c0,-0.0151 -0.01379,-0.02822 -0.02862,-0.02822l-0.06214,0c-0.02663,-0.00385 -0.04636,-0.01539 -0.07299,-0.03659c-0.20421,-0.16179 -0.41037,-0.39499 -0.41037,-0.42962c0,-0.01894 0,-0.02003 0,-0.0432c0,-0.02466 -0.02467,-0.07359 -0.08089,-0.07359c-0.05424,0 -0.04636,-0.05623 -0.01775,-0.05623c0.01973,0 0.02367,-0.00543 0.02367,-0.03197c0,-0.01657 0,-0.04666 0,-0.07783c0,-0.03472 -0.10455,-0.17924 -0.10455,-0.17924l-0.00692,0c0,0 -0.10654,0.14452 -0.10654,0.17924c0,0.03117 0,0.06126 0,0.07783c0,0.02654 0.0079,0.03197 0.02564,0.03197c0.02862,0 0.03652,0.05623 -0.01577,0.05623c-0.05624,0 -0.08089,0.04893 -0.08089,0.07359c0,0.02318 -0.00198,0.02426 -0.00198,0.0432c0,0.03463 -0.20615,0.26783 -0.41037,0.42962c-0.02665,0.02121 -0.04636,0.03275 -0.07301,0.03659l-0.06213,0c-0.01482,0 -0.02862,0.01312 -0.02862,0.02822l0,0.1163c0,0.01578 0.0138,0.02851 0.02862,0.02851l0.04833,0c0.02169,0.00464 0.03847,0.03088 0.03847,0.08632c0,0.05357 -0.01381,0.07862 -0.03257,0.0875l-0.05423,0c-0.01482,0 -0.02862,0.01194 -0.02862,0.02851l0,0.11444c0,0.01549 0.0138,0.0293 0.02862,0.0293l0.00392,0c0.00594,0.00158 0.00988,0.00158 0.01383,0.00158c0.02663,0 0.05917,-0.00543 0.05917,0.03502l0,1.20036c-0.03451,0.01696 -0.08086,0.04933 -0.08086,0.10673c0,0.07596 0,0.05821 0,0.09786c0,0.02437 -0.02071,0.06443 -0.06512,0.06443c-0.03846,0 -0.11739,0.00039 -0.18349,0.00039c-0.04046,0 -0.06707,0.03118 -0.06707,0.0589l0,0.19542c0,0.01844 0.02269,0.04351 0.05029,0.04232c0.09274,-0.00266 0.15585,0.02437 0.15585,0.09174c0,0.00346 -0.00196,0.07054 -0.00196,0.07399c0,0.06323 -0.06313,0.09174 -0.13316,0.11561c-0.13417,0.04706 -0.44293,0.12914 -0.45084,0.34606c-0.50999,0.23617 -1.43335,0.74411 -2.09824,1.7441c-0.85133,1.16405 -0.77045,2.7725 -0.77834,3.00028c-0.00196,0.04774 -0.03651,0.07664 -0.07299,0.07664c-0.02467,0 -0.08287,0 -0.09866,0c-0.04243,0 -0.04243,0.0366 -0.04243,0.0366l0,0.16682c0,0 0.00198,0.04123 -0.04241,0.04123c-0.04241,0 -0.16671,0 -0.16671,0c0,0 -0.04243,0 -0.04243,0.04627c0,0.0366 0,0.18072 0,0.18072c0,0 0.00198,0.0366 -0.04636,0.0366c-0.03352,0 -0.16769,0 -0.16769,0c0,0 -0.04636,0 -0.04636,0.04706c0,0.02732 0,0.13564 0,0.19463c0,0.0215 0.0138,0.02535 0.02861,0.02811c0.05031,0.00651 0.15192,0.05238 0.15192,0.16336c0,0.1896 0.11639,0.20765 0.16277,0.20765l0,0.7002c0,0.16297 -0.12725,0.22739 -0.19926,0.24475c-0.01479,0.00226 -0.03452,0.01923 -0.03452,0.03887c0,0.01854 0,0.72062 0,0.72062l4.91758,-1.08473l0.00692,0l4.91759,1.08473c0,0 0,-0.70208 0,-0.72062c0,-0.01964 -0.02171,-0.03661 -0.0365,-0.03887c-0.07201,-0.01736 -0.1973,-0.08178 -0.1973,-0.24475l0,-0.7002c0.04636,0 0.16277,-0.01805 0.16277,-0.20765c0,-0.11098 0.1016,-0.15685 0.14994,-0.16336c0.01678,-0.00277 0.03059,-0.00661 0.03059,-0.02811c0,-0.05899 0,-0.16731 0,-0.19463c0,-0.04706 -0.04833,-0.04706 -0.04833,-0.04706"/>
  <path fill="#ffffff" fill-rule="nonzero" id="path40" d="m89.80456,54.85052l0,-1.4373l-0.84047,0l0,-0.6278l-19.17619,0l0,0.62661l-0.84248,0l0,1.43612l-0.84541,0l0,1.452l22.54996,0.00158l0,-1.45121l-0.84543,0"/>
 </g>
</svg>
