<?xml version="1.0" encoding="UTF-8" standalone="no"?>
<!-- Created with Inkscape (http://www.inkscape.org/) -->

<svg
   xmlns:dc="http://purl.org/dc/elements/1.1/"
   xmlns:cc="http://creativecommons.org/ns#"
   xmlns:rdf="http://www.w3.org/1999/02/22-rdf-syntax-ns#"
   xmlns:svg="http://www.w3.org/2000/svg"
   xmlns="http://www.w3.org/2000/svg"
   xmlns:sodipodi="http://sodipodi.sourceforge.net/DTD/sodipodi-0.dtd"
   xmlns:inkscape="http://www.inkscape.org/namespaces/inkscape"
   width="35.083549mm"
   height="27.427206mm"
   viewBox="0 0 35.083549 27.427206"
   version="1.1"
   id="svg8"
   inkscape:version="0.92.3 (2405546, 2018-03-11)"
   sodipodi:docname="logo_soroDB.svg">
  <defs
     id="defs2" />
  <sodipodi:namedview
     id="base"
     pagecolor="#ffffff"
     bordercolor="#666666"
     borderopacity="1.0"
     inkscape:pageopacity="0.0"
     inkscape:pageshadow="2"
     inkscape:zoom="3.959798"
     inkscape:cx="-1.3951766"
     inkscape:cy="57.026095"
     inkscape:document-units="mm"
     inkscape:current-layer="layer1"
     showgrid="false"
     inkscape:window-width="1920"
     inkscape:window-height="1017"
     inkscape:window-x="-8"
     inkscape:window-y="-8"
     inkscape:window-maximized="1"
     fit-margin-top="0"
     fit-margin-left="0"
     fit-margin-right="0"
     fit-margin-bottom="0" />
  <metadata
     id="metadata5">
    <rdf:RDF>
      <cc:Work
         rdf:about="">
        <dc:format>image/svg+xml</dc:format>
        <dc:type
           rdf:resource="http://purl.org/dc/dcmitype/StillImage" />
        <dc:title></dc:title>
      </cc:Work>
    </rdf:RDF>
  </metadata>
  <g
     inkscape:label="Calque 1"
     inkscape:groupmode="layer"
     id="layer1"
     transform="translate(-32.400412,-20.539504)">
    <path
       style="fill:#4d4d4d;fill-opacity:1;stroke:#000000;stroke-width:0.07004318px;stroke-linecap:butt;stroke-linejoin:miter;stroke-opacity:1"
       d="m 40.421758,28.368844 c 2.572483,-10.859756 17.269778,-9.962069 19.061752,0.150092 8.559223,-3.207455 12.738259,12.630143 -0.600371,11.557122 -0.565773,-0.0045 -1.072146,0.347007 -1.150708,0.950591 l 0.05269,2.048886 1.59197,0.02211 c 0.275142,0.02661 0.235861,0.295394 0.141509,0.397997 l -4.342546,4.316011 c -0.167196,0.137986 -0.416791,0.183549 -0.698699,0 l -4.293901,-4.280636 c -0.08444,-0.09608 -0.220361,-0.410703 0.07518,-0.424526 h 1.574284 v -1.97932 C 51.815592,40.666876 51.61324,40.074259 50.961746,40.057018 H 38.145355 C 29.294851,39.178497 31.258183,26.01469 40.421758,28.368852 Z"
       id="path826"
       inkscape:connector-curvature="0"
       sodipodi:nodetypes="ccccccccccccccccc" />
    <path
       style="fill:#f9f9f9;fill-opacity:1;stroke-width:0.01731039"
       d="m 53.217176,38.557639 c -0.01903,-0.0027 -0.128097,-0.01385 -0.242346,-0.02472 -0.323595,-0.03087 -0.748765,-0.09427 -0.926106,-0.138094 -0.03332,-0.0082 -0.09564,-0.01999 -0.138486,-0.02614 -0.04284,-0.0061 -0.116845,-0.02189 -0.164448,-0.03499 -0.0476,-0.01317 -0.156035,-0.04067 -0.240956,-0.06127 -0.08493,-0.02053 -0.170611,-0.04343 -0.190415,-0.05073 -0.0198,-0.0073 -0.08275,-0.02709 -0.139873,-0.04377 -0.139709,-0.04094 -0.274495,-0.08599 -0.389484,-0.130231 -0.05236,-0.02013 -0.12458,-0.04749 -0.160483,-0.06079 -0.0359,-0.01324 -0.09043,-0.03553 -0.121173,-0.04951 -0.03074,-0.01398 -0.118214,-0.05316 -0.194379,-0.08713 -0.07617,-0.03398 -0.161852,-0.07438 -0.190413,-0.08981 -0.02856,-0.01541 -0.106461,-0.05674 -0.173105,-0.09184 -0.06664,-0.03506 -0.170409,-0.09648 -0.230585,-0.13646 -0.06018,-0.03998 -0.116003,-0.07268 -0.124057,-0.07268 -0.008,0 -0.01727,-0.0058 -0.02042,-0.01298 -0.0031,-0.0071 -0.03741,-0.03354 -0.07607,-0.05867 -0.177366,-0.115261 -0.526675,-0.454878 -0.65629,-0.638072 -0.121153,-0.171236 -0.223082,-0.376181 -0.267432,-0.537725 -0.03376,-0.122978 -0.03595,-0.175493 -0.03595,-0.864311 V 34.61433 l 0.05354,0.05938 c 0.02945,0.03266 0.06255,0.07109 0.07357,0.0854 0.01896,0.02465 0.219004,0.201573 0.367338,0.324902 0.107605,0.08946 0.430546,0.299267 0.648036,0.421011 0.209824,0.117453 0.256693,0.141232 0.424103,0.215156 0.05712,0.02522 0.127235,0.05651 0.155795,0.06953 0.12174,0.05548 0.511006,0.19752 0.542662,0.198014 0.01283,1.81e-4 0.04789,0.01085 0.0779,0.02364 0.03,0.01281 0.101282,0.0371 0.158408,0.054 0.229472,0.06786 0.263296,0.07752 0.354862,0.10137 0.133056,0.03465 0.313245,0.0751 0.476038,0.106847 0.07617,0.01486 0.181196,0.03556 0.233403,0.04601 0.10976,0.02196 0.403466,0.06044 0.640769,0.08395 0.09045,0.0089 0.222871,0.02577 0.294282,0.03735 0.08796,0.01429 0.389391,0.0214 0.934758,0.02204 0.801929,7.43e-4 1.099154,-0.01469 1.480036,-0.07803 0.05713,-0.0095 0.167864,-0.02441 0.24609,-0.03312 0.07822,-0.0087 0.1717,-0.0234 0.207725,-0.03261 0.03603,-0.0092 0.108343,-0.02173 0.160705,-0.02783 0.05236,-0.0061 0.114682,-0.01751 0.138483,-0.02542 0.0238,-0.0079 0.105595,-0.02794 0.18176,-0.04457 0.07617,-0.01663 0.17354,-0.03995 0.216383,-0.05181 0.04284,-0.01185 0.128526,-0.035 0.190411,-0.05145 0.141764,-0.03767 0.5857,-0.178122 0.631829,-0.199902 0.01903,-0.009 0.08525,-0.03522 0.147138,-0.0583 0.408729,-0.152386 0.832035,-0.373208 1.213929,-0.633264 0.202313,-0.137771 0.528059,-0.418641 0.62403,-0.53806 0.03007,-0.03741 0.05921,-0.06804 0.06475,-0.06804 0.0055,-6e-6 0.0058,0.348585 7.43e-4,0.774642 l -0.0095,0.774653 -0.05247,0.138484 c -0.02885,0.07617 -0.07329,0.171435 -0.09873,0.211707 -0.02544,0.04028 -0.04626,0.08017 -0.04626,0.08866 0,0.03077 -0.219977,0.308308 -0.335422,0.423192 -0.291729,0.290307 -0.584417,0.492248 -1.092685,0.753914 -0.302145,0.155535 -0.800229,0.34394 -1.107865,0.419042 -0.03808,0.0093 -0.08482,0.02391 -0.103863,0.03249 -0.01903,0.0086 -0.08915,0.02837 -0.155793,0.04397 -0.06664,0.0156 -0.14454,0.03506 -0.173105,0.04323 -0.102917,0.02939 -0.577324,0.119692 -0.822244,0.156507 -0.447431,0.06728 -0.785947,0.08611 -1.506003,0.08386 -0.395109,-0.0013 -0.73396,-0.0047 -0.753001,-0.0072 z m 0.467381,-2.658321 c -0.345873,-0.01279 -0.856818,-0.04766 -0.876609,-0.05989 -0.01279,-0.0079 -0.24335,-0.04108 -0.343778,-0.04949 -0.02381,-0.0022 -0.07443,-0.0092 -0.112517,-0.01601 -0.388497,-0.0694 -0.497345,-0.09213 -0.735689,-0.153632 -0.07141,-0.01841 -0.160986,-0.04088 -0.199072,-0.04991 -0.03808,-0.009 -0.1004,-0.02681 -0.138482,-0.0395 -0.03808,-0.01269 -0.115977,-0.03689 -0.173105,-0.05375 -0.168672,-0.04979 -0.31041,-0.09951 -0.328032,-0.115055 -0.009,-0.008 -0.02852,-0.01455 -0.04327,-0.01459 -0.01474,-5.3e-5 -0.04915,-0.01174 -0.07641,-0.02597 -0.02728,-0.01422 -0.05613,-0.02585 -0.06414,-0.02585 -0.05967,0 -0.736692,-0.346281 -0.942214,-0.481921 -0.09521,-0.06284 -0.177,-0.118374 -0.181764,-0.12342 -0.0047,-0.0051 -0.05929,-0.04783 -0.121169,-0.09508 -0.15947,-0.121745 -0.374959,-0.340677 -0.494874,-0.502783 -0.10441,-0.141138 -0.242168,-0.399264 -0.269167,-0.504348 -0.0082,-0.03196 -0.02254,-0.08732 -0.03182,-0.123026 -0.0097,-0.03729 -0.01708,-0.386574 -0.01732,-0.820866 l -2.4e-4,-0.755957 0.177432,0.177275 c 0.217185,0.216988 0.495939,0.428846 0.832145,0.632444 0.0941,0.057 0.5595,0.290562 0.730119,0.366434 0.119075,0.05295 0.696098,0.254657 0.813587,0.2844 0.0476,0.01207 0.13329,0.03528 0.190416,0.05161 0.170884,0.04886 0.461,0.115869 0.639219,0.147649 0.05643,0.01007 0.107282,0.02119 0.113009,0.02473 0.0058,0.0035 0.0764,0.0151 0.157057,0.02569 0.08066,0.01061 0.185598,0.02645 0.2332,0.03528 0.107356,0.0199 0.52103,0.06233 0.865523,0.0888 0.342241,0.02629 1.10886,0.02651 1.445415,4.77e-4 0.333021,-0.02583 0.742122,-0.06843 0.856866,-0.08925 0.0476,-0.0086 0.125496,-0.02039 0.173102,-0.02618 0.07732,-0.0094 0.160296,-0.02465 0.424108,-0.07803 0.244598,-0.04951 0.511391,-0.115618 0.67138,-0.166377 0.0408,-0.01295 0.08569,-0.02352 0.09977,-0.02352 0.0141,0 0.03912,-0.0071 0.05565,-0.01584 0.01653,-0.0087 0.08459,-0.03272 0.151229,-0.05334 0.141922,-0.04391 0.468184,-0.16299 0.579902,-0.211664 0.686423,-0.29905 1.169207,-0.60862 1.562261,-1.001747 l 0.168779,-0.168809 -4.77e-4,0.756002 c -1.8e-4,0.43432 -0.0076,0.783619 -0.01732,0.820912 -0.0093,0.0357 -0.02388,0.09224 -0.03242,0.125627 -0.02571,0.100605 -0.172142,0.372338 -0.275115,0.510531 -0.185492,0.248927 -0.412725,0.45553 -0.756646,0.687952 -0.201222,0.135982 -0.2667,0.172981 -0.571243,0.322798 -0.28962,0.142475 -0.35777,0.172721 -0.487444,0.216347 -0.05864,0.01973 -0.128746,0.04478 -0.155795,0.05568 -0.02706,0.01092 -0.06475,0.02601 -0.0838,0.03358 -0.02925,0.01162 -0.323318,0.102165 -0.502,0.154548 -0.02857,0.0084 -0.122041,0.03167 -0.207726,0.05177 -0.08569,0.02011 -0.179161,0.04382 -0.207722,0.05271 -0.02857,0.0089 -0.102568,0.0243 -0.164451,0.0342 -0.06189,0.0099 -0.174834,0.02944 -0.251003,0.04336 -0.07616,0.01393 -0.200798,0.03372 -0.276964,0.04396 -0.07617,0.01023 -0.217834,0.0299 -0.314817,0.04368 -0.09698,0.01379 -0.22622,0.02506 -0.287194,0.02506 -0.06097,0 -0.172472,0.0076 -0.247773,0.01689 -0.181352,0.02232 -0.586927,0.02897 -0.9505,0.0156 z m -0.398141,-2.75161 c -0.06664,-0.0078 -0.226335,-0.02259 -0.354865,-0.03281 -0.128529,-0.01023 -0.276533,-0.02591 -0.328894,-0.03482 -0.05236,-0.0089 -0.149737,-0.02525 -0.216383,-0.03631 -0.10888,-0.01808 -0.240576,-0.04144 -0.477901,-0.08486 -0.04387,-0.008 -0.113978,-0.02361 -0.155796,-0.03464 -0.04181,-0.01103 -0.122766,-0.03159 -0.179891,-0.04571 -0.193656,-0.04785 -0.446556,-0.123066 -0.61452,-0.182776 -0.05235,-0.01863 -0.122472,-0.04187 -0.15579,-0.05167 -0.03332,-0.0098 -0.06838,-0.02374 -0.0779,-0.03096 -0.0095,-0.0072 -0.04043,-0.01866 -0.06868,-0.02544 -0.02825,-0.0067 -0.09057,-0.03043 -0.138487,-0.05257 -0.213036,-0.09843 -0.323912,-0.147617 -0.332727,-0.147617 -0.0052,0 -0.05337,-0.02629 -0.106982,-0.05844 -0.05361,-0.03214 -0.140311,-0.08084 -0.192678,-0.108204 -0.13767,-0.07195 -0.386656,-0.238532 -0.536621,-0.359027 -0.208055,-0.167162 -0.341564,-0.302151 -0.47669,-0.481968 -0.122464,-0.162966 -0.284967,-0.460824 -0.284967,-0.522319 0,-0.01663 -0.0097,-0.04726 -0.02164,-0.06806 -0.01594,-0.02783 -0.02391,-0.225109 -0.03029,-0.747535 -0.0047,-0.390351 -0.0067,-0.713013 -0.0043,-0.717022 0.0024,-0.004 0.07654,0.0661 0.164698,0.155792 0.334823,0.340675 0.909311,0.725083 1.384088,0.926139 0.05451,0.02309 0.140201,0.06007 0.190413,0.08217 0.08186,0.03604 0.170588,0.07235 0.286526,0.117247 0.06717,0.02601 0.387888,0.130654 0.497185,0.162224 0.05713,0.01648 0.123335,0.03656 0.147138,0.04457 0.217745,0.07334 0.905427,0.210983 1.332899,0.266782 0.569303,0.07431 0.743411,0.08429 1.471386,0.08431 0.727284,10e-6 0.957379,-0.01316 1.454073,-0.08327 0.09997,-0.01412 0.209024,-0.02883 0.242346,-0.03271 0.05376,-0.0063 0.355501,-0.06034 0.545276,-0.09771 0.15403,-0.03034 0.331381,-0.07074 0.372173,-0.08479 0.02381,-0.0082 0.09391,-0.02843 0.155795,-0.04496 0.233783,-0.06243 0.61196,-0.186149 0.770313,-0.252 0.447418,-0.186061 0.53694,-0.22724 0.741101,-0.340907 0.07795,-0.0434 0.157305,-0.08739 0.176349,-0.09777 0.05708,-0.0311 0.310918,-0.189966 0.320241,-0.200424 0.0048,-0.0053 0.08485,-0.0673 0.177976,-0.137674 0.09313,-0.07038 0.248922,-0.207101 0.346211,-0.303809 l 0.176883,-0.175839 -0.0045,0.667755 c -0.0041,0.609211 -0.0077,0.68065 -0.04065,0.814889 -0.07883,0.321122 -0.378805,0.749784 -0.708654,1.012657 -0.02388,0.01903 -0.07827,0.06251 -0.120838,0.09659 -0.07056,0.05648 -0.198071,0.142268 -0.393244,0.26452 -0.136425,0.08545 -0.392984,0.219565 -0.549672,0.287325 -0.0476,0.02056 -0.10992,0.04806 -0.138484,0.06106 -0.118946,0.05413 -0.179385,0.07813 -0.196768,0.07813 -0.01016,0 -0.04792,0.01279 -0.08394,0.02837 -0.03603,0.01561 -0.08108,0.03485 -0.100122,0.04277 -0.03793,0.01579 -0.18415,0.06227 -0.34621,0.110075 -0.05712,0.01687 -0.13891,0.04125 -0.181754,0.05423 -0.417634,0.126478 -1.111982,0.24623 -1.791628,0.308999 -0.317531,0.02933 -1.314764,0.03453 -1.540625,0.008 z m 0.255796,-2.55512 c -0.0074,-0.0022 -0.151347,-0.01174 -0.319883,-0.02173 -0.168534,-0.0099 -0.36328,-0.02645 -0.432758,-0.03666 -0.06948,-0.01021 -0.176962,-0.02588 -0.238847,-0.03485 -0.06188,-0.0089 -0.182625,-0.02852 -0.268311,-0.04348 -0.08569,-0.01496 -0.199817,-0.03415 -0.253622,-0.04266 -0.0538,-0.0085 -0.17065,-0.03449 -0.259656,-0.05774 -0.089,-0.02325 -0.196582,-0.04779 -0.239059,-0.05455 -0.04247,-0.0067 -0.08922,-0.0184 -0.10386,-0.02585 -0.02615,-0.01336 -0.202268,-0.06712 -0.372839,-0.113829 -0.04761,-0.01305 -0.102133,-0.03115 -0.121176,-0.04024 -0.01903,-0.0091 -0.09304,-0.03692 -0.164447,-0.06184 -0.324301,-0.113158 -0.845306,-0.369097 -1.107869,-0.544228 -0.251639,-0.167849 -0.380021,-0.267295 -0.372803,-0.288774 0.0036,-0.01074 -0.0035,-0.01851 -0.01576,-0.01732 -0.02583,0.0024 -0.253329,-0.210396 -0.329809,-0.308676 -0.02856,-0.0367 -0.06829,-0.08694 -0.0883,-0.11163 -0.07702,-0.0951 -0.20006,-0.332879 -0.252694,-0.488345 -0.04672,-0.137995 -0.05515,-0.188443 -0.05607,-0.33552 -7.43e-4,-0.153748 0.0056,-0.192453 0.05844,-0.346204 0.195445,-0.568391 0.735818,-1.079161 1.593621,-1.50632 0.273375,-0.136132 0.68302,-0.295669 0.978039,-0.380906 0.05712,-0.0165 0.13502,-0.03993 0.173103,-0.05205 0.03809,-0.01212 0.123769,-0.03512 0.190414,-0.05111 0.06664,-0.016 0.16012,-0.03929 0.207724,-0.05179 0.161151,-0.0423 0.333659,-0.07836 0.374649,-0.07831 0.02248,2.5e-5 0.09144,-0.01114 0.15332,-0.02481 0.104578,-0.02312 0.263756,-0.04609 0.675106,-0.09743 0.09045,-0.0113 0.34527,-0.02577 0.566276,-0.03219 0.334021,-0.04846 0.675285,-0.01151 1.01255,0.0013 0.231288,0.0088 0.436103,0.018 0.455144,0.0205 0.01903,0.0024 0.08136,0.01015 0.138484,0.01699 0.422512,0.05059 0.816236,0.118396 1.185758,0.204202 0.13254,0.03078 0.234284,0.05872 0.536623,0.147396 0.216791,0.06358 0.687268,0.239038 0.717519,0.267581 0.009,0.0085 0.02692,0.01551 0.03975,0.01551 0.08202,0 0.753868,0.379355 0.950113,0.536474 0.02983,0.02388 0.08046,0.06247 0.112517,0.08575 0.07503,0.05448 0.388082,0.367744 0.465838,0.466145 0.103875,0.131448 0.217463,0.34269 0.278158,0.517278 0.05202,0.149665 0.05851,0.188174 0.05755,0.341772 -7.43e-4,0.147323 -0.0093,0.197598 -0.05659,0.337552 -0.0656,0.194336 -0.177714,0.394674 -0.31521,0.563243 -0.104631,0.128271 -0.370627,0.388292 -0.4474,0.437345 -0.02487,0.01588 -0.05303,0.03783 -0.06254,0.04873 -0.0277,0.03173 -0.38755,0.265591 -0.510656,0.331873 -0.177125,0.09537 -0.259912,0.136952 -0.38083,0.19131 -0.06188,0.02782 -0.147568,0.06637 -0.190414,0.08566 -0.04284,0.01927 -0.124634,0.05107 -0.181758,0.0706 -0.05713,0.01954 -0.146706,0.05206 -0.19907,0.07227 -0.05236,0.0202 -0.130259,0.04707 -0.173103,0.05968 -0.04284,0.01262 -0.132424,0.03968 -0.199068,0.06014 -0.117996,0.03621 -0.203386,0.05964 -0.380827,0.104464 -0.08478,0.02142 -0.127764,0.0307 -0.320245,0.06916 -0.05237,0.01045 -0.149739,0.03022 -0.216381,0.04389 -0.06664,0.01367 -0.210755,0.03689 -0.320243,0.05157 -0.109489,0.01469 -0.248464,0.0346 -0.30884,0.04428 -0.196692,0.03151 -0.972837,0.06971 -1.313543,0.06466 -0.183016,-0.0028 -0.338812,-0.0065 -0.346209,-0.0085 z"
       id="path839"
       inkscape:connector-curvature="0"
       sodipodi:nodetypes="csccsscccccccccsscscscccssccccccccccsccsccccsccscsccccscccsccscccccccccsccccsscscccccsccccscccccscscsccccccccsccccccccccsssccccccccccccsscssccsscccssccccssccccccccccscccscsccsscccscccscccsscccccsccccscccscsccccccccsscsccccccscccsccccccccsccc" />
    <path
       style="fill:#cd3959;fill-opacity:1;stroke:none;stroke-width:0.07004318px;stroke-linecap:butt;stroke-linejoin:miter;stroke-opacity:1"
       d="m 49.841241,40.058981 c -0.565773,0.0045 -1.072147,-0.346999 -1.150708,-0.95059 l 0.05268,-2.842251 1.59197,-0.02211 c 0.275142,-0.02662 0.235861,-0.29539 0.141509,-0.397992 l -4.342546,-4.316015 c -0.167196,-0.137985 -0.416791,-0.183551 -0.6987,0 l -4.293902,4.280636 c -0.08444,0.09608 -0.220359,0.410706 0.07518,0.424527 h 1.574283 v 2.772691 c -0.01732,0.460291 -0.219669,1.052908 -0.871163,1.070157 z"
       id="path826-6"
       inkscape:connector-curvature="0"
       sodipodi:nodetypes="ccccccccccccc" />
    <g
       aria-label="DB"
       transform="matrix(0.08719482,0.01547311,-0.03560255,0.08464814,39.655119,28.609048)"
       style="font-style:normal;font-variant:normal;font-weight:bold;font-stretch:normal;font-size:40px;line-height:1.25;font-family:Arial;-inkscape-font-specification:'Arial Bold';letter-spacing:0px;word-spacing:0px;fill:#cd3959;fill-opacity:1;stroke:none"
       id="flowRoot867">
      <path
         d="m 124.70852,-20.034761 h 10.64 c 10.08,0 15.96,-6 15.96,-14.08 v -0.08 c 0,-8.08 -5.8,-13.84 -15.8,-13.84 h -10.8 z m 7.76,-6.88 v -14.24 h 3.16 c 4.64,0 7.72,2.6 7.72,7.08 v 0.08 c 0,4.52 -3.08,7.08 -7.72,7.08 z"
         style="font-style:normal;font-variant:normal;font-weight:bold;font-stretch:normal;font-family:'Gotham Black';-inkscape-font-specification:'Gotham Black, Bold';fill:#cd3959;fill-opacity:1"
         id="path822" />
      <path
         d="m 155.33352,-20.034761 h 14.44 c 6.68,0 10.6,-2.92 10.6,-7.72 v -0.08 c 0,-3.8 -2.16,-5.72 -5.56,-6.84 2.48,-1.08 4.32,-3 4.32,-6.24 v -0.08 c 0,-1.92 -0.68,-3.4 -1.8,-4.52 -1.64,-1.64 -4.12,-2.52 -7.64,-2.52 h -14.36 z m 7.56,-16.84 v -4.92 h 5.04 c 2.32,0 3.52,0.88 3.52,2.4 v 0.08 c 0,1.64 -1.32,2.44 -3.68,2.44 z m 0,10.6 v -5.16 h 5.92 c 2.6,0 3.8,1 3.8,2.52 v 0.08 c 0,1.64 -1.36,2.56 -3.72,2.56 z"
         style="font-style:normal;font-variant:normal;font-weight:bold;font-stretch:normal;font-family:'Gotham Black';-inkscape-font-specification:'Gotham Black, Bold';fill:#cd3959;fill-opacity:1"
         id="path824" />
    </g>
  </g>
</svg>
