<?xml version="1.0" encoding="UTF-8"?>
<!DOCTYPE svg PUBLIC "-//W3C//DTD SVG 1.1//EN" "http://www.w3.org/Graphics/SVG/1.1/DTD/svg11.dtd">
<svg version="1.1" id="Layer_1" xmlns="http://www.w3.org/2000/svg" xmlns:xlink="http://www.w3.org/1999/xlink" x="0px" y="0px" width="360.923px" height="94.688px" viewBox="0 0 360.923 94.688" enable-background="new 0 0 360.923 94.688" xml:space="preserve">
<path fill="#00548F" d="M0,39.84V1.898h7.44V39.84H0z"/>
<path fill="#00548F" d="M18.357,15.936h0.105c1.794-2.439,5.222-3.848,8.337-3.848c3.32,0,6.168,1.355,7.754,3.848  c2.219-2.166,5.646-3.793,8.762-3.848c5.955-0.055,9.074,3.688,9.18,9.918v17.779h-7.021V23.309c0-3.143-1.055-6.395-4.533-6.395  c-3.377,0-5.486,2.057-5.486,6.771V39.84h-7.02V23.309c0-3.793-1.635-6.395-4.643-6.395c-3.326,0-5.38,2.328-5.38,6.936v15.99h-7.02  V12.738h6.965V15.936z"/>
<path fill="#00548F" d="M70.142,16.426c4.006,0,6.012,4.662,6.012,9.322c0,4.77-1.58,10.406-6.273,10.406  c-3.801,0-6.492-3.848-6.492-9.539C63.388,20.381,65.71,16.426,70.142,16.426z M63.388,12.738h-7.014v40.654h7.014V36.479  c1.955,2.389,4.693,4.01,7.91,4.01c7.547,0,12.295-7.639,12.295-14.795c0-5.963-3.374-13.605-11.657-13.605  c-3.166,0-6.594,1.627-8.443,4.389h-0.105V12.738z"/>
<path fill="#00548F" d="M93.648,23.035c-0.053-3.625,1.738-6.936,5.75-6.936c3.48,0,4.906,2.818,4.641,6.936H93.648z   M110.641,26.938c0.521-8.074-2.908-14.85-11.137-14.85c-7.545,0-13.453,5.313-13.453,13.66c0,8.945,5.959,14.74,13.928,14.74  c3.006,0,6.752-0.867,10.34-3.033l-2.006-3.793c-1.738,1.244-4.486,2.17-7.068,2.17c-4.379,0-7.859-3.797-7.699-8.895H110.641z"/>
<path fill="#00548F" d="M120.99,17.508h0.105l1.422-2.113c0.844-1.141,2.375-3.307,4.537-3.307c1.584,0,3.27,0.869,4.75,2.438  l-2.637,4.99c-1.16-0.598-1.9-0.924-3.324-0.924c-2.426,0-4.803,2.006-4.803,7.859V39.84h-7.018V12.738h6.967V17.508z"/>
<path fill="#00548F" d="M141.066,12.738V39.84h-7.014V12.738H141.066z M133.367,4.611c0-2.064,1.688-4.174,4.063-4.174  c2.426,0,4.326,2.059,4.326,4.174c0,2.328-1.639,4.549-4.225,4.549C135.055,9.16,133.367,6.939,133.367,4.611z"/>
<path fill="#00548F" d="M160.123,24.121c0.527,7.965-3.109,11.545-5.906,11.545c-1.688,0-3.17-1.625-3.17-4.012  c0-3.088,1.744-5.146,5.172-6.234L160.123,24.121z M160.02,35.883c0,1.463,0.156,3.035,0.682,3.957h7.441  c-0.846-1.898-1.109-4.445-1.109-6.613V22.172c0-8.457-5.959-10.084-10.814-10.084c-3.639,0-6.855,0.922-10.131,3.688l2.268,3.414  c1.85-1.627,3.961-2.764,6.971-2.764c2.268,0,4.428,1.572,4.797,4.064l-6.227,1.896c-6.121,1.787-9.76,4.715-9.76,9.867  c0,4.982,3.428,8.234,7.543,8.234c2.428,0,4.807-1.678,6.758-3.252L160.02,35.883z"/>
<path fill="#00548F" d="M171.414,39.84V0h7.013v39.84H171.414z"/>
<path fill="#00548F" d="M224.733,8.781c-1.799-0.977-4.803-2.113-7.656-2.113c-7.594,0-13.078,5.475-13.078,14.094  c0,8.998,6.068,14.309,13.291,14.309c2.852,0,5.488-0.814,7.443-1.898l2.057,4.717c-2.268,1.355-6.225,2.6-9.814,2.6  c-12.824,0-20.895-8.672-20.895-19.834c0-10.354,8.023-19.406,20.996-19.406c3.855,0,7.445,1.41,9.973,2.928L224.733,8.781z"/>
<path fill="#00548F" d="M240.711,36.479c-5.014,0-6.383-5.744-6.383-10.514c0-4.498,1.58-9.865,6.383-9.865  c4.906,0,6.434,5.367,6.434,9.865C247.145,30.734,245.829,36.479,240.711,36.479z M240.711,40.488  c8.287,0,13.871-6.121,13.871-14.523c0-8.781-6.748-13.877-13.871-13.877c-7.072,0-13.822,5.096-13.822,13.877  C226.889,34.367,232.481,40.488,240.711,40.488z"/>
<path fill="#00548F" d="M257.608,39.84V0h7.021v39.84H257.608z"/>
<path fill="#00548F" d="M269.051,39.84V0h7.014v39.84H269.051z"/>
<path fill="#00548F" d="M286.583,23.035c-0.059-3.625,1.736-6.936,5.744-6.936c3.486,0,4.908,2.818,4.646,6.936H286.583z   M303.567,26.938c0.529-8.074-2.9-14.85-11.131-14.85c-7.543,0-13.459,5.313-13.459,13.66c0,8.945,5.963,14.74,13.934,14.74  c3.004,0,6.75-0.867,10.342-3.033l-2.006-3.793c-1.738,1.244-4.486,2.17-7.07,2.17c-4.377,0-7.863-3.797-7.703-8.895H303.567z"/>
<path fill="#00548F" d="M343.883,23.035c-0.051-3.625,1.74-6.936,5.752-6.936c3.479,0,4.908,2.818,4.643,6.936H343.883z   M360.872,26.938c0.525-8.074-2.9-14.85-11.131-14.85c-7.547,0-13.455,5.313-13.455,13.66c0,8.945,5.959,14.74,13.93,14.74  c3.008,0,6.754-0.867,10.34-3.033l-2.004-3.793c-1.742,1.244-4.484,2.17-7.07,2.17c-4.381,0-7.857-3.797-7.703-8.895H360.872z"/>
<path fill="#00548F" d="M319.969,16.426c4.223,0,6.383,4.391,6.383,9.105c0,5.42-2.006,10.623-6.703,10.623  c-4.061,0-6.063-5.096-6.063-10.354C313.586,20.545,315.432,16.426,319.969,16.426z M333.37,12.738h-7.018v3.307h-0.104  c-1.477-2.439-4.645-3.957-7.863-3.957c-7.176,0-12.24,6.83-12.24,13.877c0,8.672,4.592,14.523,11.609,14.523  c4.012,0,6.752-2.275,8.494-4.553h0.104v3.578c0,6.287-3.586,9.215-8.232,9.215c-3.586,0-6.594-0.705-9.176-2.33l-1.375,4.443  c3.115,1.625,7.127,2.551,11.08,2.551c7.863,0,14.721-3.959,14.721-15.99V12.738z"/>
<path fill="#549DC5" d="M0,56.104h7.494v32.84h15.771v5.096H0V56.104z"/>
<path fill="#549DC5" d="M64.435,70.138c2.503-2.602,5.995-3.85,9.495-3.85c6.496,0,9.607,3.471,9.607,10.299V94.04h-7.051V77.401  c0-3.792-1.722-6.285-5.554-6.285c-3.613,0-6.442,2.327-6.442,6.771V94.04h-7.052V66.942h6.998V70.138z"/>
<path fill="#549DC5" d="M101.797,70.63c4.444,0,6.719,4.39,6.719,9.102c0,5.423-2.106,10.623-7.053,10.623  c-4.273,0-6.383-5.095-6.383-10.352S97.025,70.63,101.797,70.63z M108.516,94.04h7.053V54.206h-7.053v15.881h-0.111  c-1.665-2.389-4.883-3.799-8.492-3.799c-7.444,0-12.662,6.831-12.662,13.877c0,8.67,4.829,14.523,12.105,14.523  c4.331,0,7.218-2.275,9.049-4.553h0.111V94.04z"/>
<path fill="#549DC5" d="M133.893,90.677c-5.271,0-6.721-5.743-6.721-10.512c0-4.497,1.664-9.863,6.721-9.863  c5.167,0,6.773,5.366,6.773,9.863C140.666,84.934,139.282,90.677,133.893,90.677z M133.893,94.688  c8.717,0,14.601-6.125,14.601-14.523c0-8.777-7.104-13.877-14.601-13.877c-7.441,0-14.549,5.1-14.549,13.877  C119.344,88.563,125.231,94.688,133.893,94.688z"/>
<path fill="#549DC5" d="M159.324,70.138c2.5-2.602,5.997-3.85,9.493-3.85c6.497,0,9.608,3.471,9.608,10.299V94.04h-7.051V77.401  c0-3.792-1.722-6.285-5.556-6.285c-3.606,0-6.44,2.327-6.44,6.771V94.04h-7.052V66.942h6.997V70.138z"/>
<path fill="#549DC5" d="M38.884,90.677c-5.28,0-6.72-5.743-6.72-10.512c0-4.497,1.664-9.863,6.72-9.863  c5.164,0,6.774,5.366,6.774,9.863C45.658,84.934,44.266,90.677,38.884,90.677z M38.884,94.688c8.716,0,14.602-6.125,14.602-14.523  c0-8.777-7.108-13.877-14.602-13.877c-7.442,0-14.549,5.1-14.549,13.877C24.335,88.563,30.219,94.688,38.884,94.688z"/>
</svg>