<?xml version="1.0" encoding="UTF-8" standalone="no"?>
<!-- Created with Inkscape (http://www.inkscape.org/) -->

<svg
   xmlns:dc="http://purl.org/dc/elements/1.1/"
   xmlns:cc="http://creativecommons.org/ns#"
   xmlns:rdf="http://www.w3.org/1999/02/22-rdf-syntax-ns#"
   xmlns:svg="http://www.w3.org/2000/svg"
   xmlns="http://www.w3.org/2000/svg"
   xmlns:sodipodi="http://sodipodi.sourceforge.net/DTD/sodipodi-0.dtd"
   xmlns:inkscape="http://www.inkscape.org/namespaces/inkscape"
   width="79.125244mm"
   height="29.319546mm"
   viewBox="0 0 79.125244 29.319546"
   version="1.1"
   id="svg8"
   inkscape:version="0.92.3 (2405546, 2018-03-11)"
   sodipodi:docname="Logo_USMB_Couleurs.svg">
  <defs
     id="defs2" />
  <sodipodi:namedview
     id="base"
     pagecolor="#ffffff"
     bordercolor="#666666"
     borderopacity="1.0"
     inkscape:pageopacity="0.0"
     inkscape:pageshadow="2"
     inkscape:zoom="1.979899"
     inkscape:cx="178.61029"
     inkscape:cy="109.40797"
     inkscape:document-units="mm"
     inkscape:current-layer="layer1"
     showgrid="false"
     fit-margin-top="0"
     fit-margin-left="0"
     fit-margin-right="0"
     fit-margin-bottom="0"
     inkscape:window-width="1920"
     inkscape:window-height="1017"
     inkscape:window-x="-8"
     inkscape:window-y="-8"
     inkscape:window-maximized="1" />
  <metadata
     id="metadata5">
    <rdf:RDF>
      <cc:Work
         rdf:about="">
        <dc:format>image/svg+xml</dc:format>
        <dc:type
           rdf:resource="http://purl.org/dc/dcmitype/StillImage" />
        <dc:title></dc:title>
      </cc:Work>
    </rdf:RDF>
  </metadata>
  <g
     inkscape:label="Calque 1"
     inkscape:groupmode="layer"
     id="layer1"
     transform="translate(-184.95524,140.9931)">
    <g
       transform="matrix(0.2405351,0,0,0.2405351,258.17093,-131.33917)"
       id="g1632">
      <path
         style="fill:#10069f;fill-opacity:1;stroke-width:0.26458332"
         d="M -279.50434,80.272399 C -292.03321,73.97212 -300.46079,63.08729 -303.6204,49.12475 l -0.59873,-2.64584 -0.0838,-34.683 -0.0838,-34.682997 0.70502,-0.70502 0.70501,-0.70501 h 9.59769 9.5977 l 0.68498,0.81405 c 0.95837,1.138946 0.92528,2.425916 -0.0884,3.439626 l -0.7734,0.7734 h -7.69327 -7.69327 V 11.14666 c 0,28.6448 0.14144,35.39246 0.75567,36.04928 0.0966,0.10332 3.68262,-4.40078 7.9689,-10.00912 4.28627,-5.60833 7.99795,-10.30654 8.24818,-10.44046 0.62667,-0.33538 1.82965,-0.28925 2.51934,0.0966 0.31592,0.17674 1.66318,1.7937 2.99393,3.59324 l 2.41954,3.27188 6.46502,-8.68658 c 3.55576,-4.77762 6.73287,-8.83536 7.06024,-9.0172 0.83023,-0.46115 1.82146,-0.42727 2.5562,0.0874 0.34292,0.24019 3.41965,4.19902 6.83716,8.79739 3.41752,4.59837 6.30401,8.45921 6.41443,8.57964 0.11043,0.12043 1.30242,-1.28267 2.64888,-3.11799 1.34645,-1.83532 2.66289,-3.4519 2.92541,-3.5924 0.8569,-0.4586 2.24579,-0.29442 2.92086,0.34528 0.34867,0.3304 4.02185,5.0408 8.16262,10.46756 6.15221,8.06289 7.56396,9.77145 7.72167,9.3451 0.61649,-1.66652 0.75519,-8.33617 0.75604,-36.35453 l 9.1e-4,-29.831771 h -7.65262 -7.65261 l -0.81405,-0.68498 c -0.68477,-0.5762 -0.81406,-0.87224 -0.81406,-1.86411 0,-0.89914 0.15422,-1.333336 0.64944,-1.828556 l 0.64943,-0.64943 h 9.55738 9.55738 l 0.77339,0.77339 0.7734,0.7734 V 10.15146 c 0,21.43961 -0.097,33.68284 -0.27856,35.14379 -1.98383,15.96653 -11.80397,29.275198 -26.42053,35.806167 -2.9557,1.320668 -2.5298,1.690008 -10.77555,-9.344496 -3.90921,-5.231311 -7.19062,-9.487071 -7.29203,-9.457231 -0.10141,0.0298 -3.35283,4.2805 -7.22538,9.445934 -3.87255,5.165428 -7.30193,9.536755 -7.62083,9.71406 -1.02444,0.569574 -1.84798,0.371999 -4.94877,-1.187265 z m 10.58666,-14.429169 c 5.01321,-6.71735 7.79492,-10.22459 8.29934,-10.46398 1.70869,-0.81092 1.8157,-0.70226 9.86612,10.01839 4.0974,5.456471 7.55423,10.085243 7.68183,10.28616 0.28628,0.450754 1.50812,-0.125156 4.84437,-2.283368 3.67622,-2.378131 7.00717,-5.391891 9.46173,-8.560722 0.28125,-0.36309 -1.91473,-3.42988 -15.15645,-21.16666 -8.51694,-11.40813 -15.58678,-20.77687 -15.71076,-20.81942 -0.25537,-0.0876 -31.2466,41.31601 -31.2466,41.74483 0,0.52634 5.9586,6.225991 8.06979,7.719101 1.89909,1.343102 5.87938,3.674711 6.21771,3.642262 0.0728,-0.007 3.52557,-4.559442 7.67292,-10.116593 z m 104.63925,2.266401 c -3.98569,-1.420091 -6.66657,-4.373061 -7.5412,-8.306621 -1.37032,-6.16283 2.28705,-12.28038 8.29877,-13.88106 4.19234,-1.11626 9.15775,0.27324 11.85256,3.31677 3.40908,3.85022 3.84484,9.90218 1.02691,14.26205 -1.20498,1.86435 -2.50827,2.97959 -4.77004,4.081791 -1.56126,0.76083 -1.98809,0.84553 -4.63021,0.91887 -2.27782,0.0632 -3.19871,-0.0219 -4.23679,-0.3918 z m 7.22692,-3.926991 c 2.67938,-1.33519 4.1378,-3.93857 4.0937,-7.30752 -0.0572,-4.37011 -3.27602,-7.63826 -7.48071,-7.59537 -3.13744,0.032 -5.28415,1.33574 -6.59978,4.00816 -0.71704,1.45651 -0.83795,1.99094 -0.83795,3.70374 0,3.66249 1.71791,6.29435 4.91181,7.52495 0.44337,0.17083 1.64596,0.31966 2.67241,0.33073 1.50381,0.0162 2.13319,-0.11288 3.24052,-0.66469 z M 11.597327,68.085201 C 5.122367,65.78413 2.190337,58.41859 5.184697,51.97607 c 1.88106,-4.04717 5.75313,-6.42204 10.457003,-6.41359 2.24644,0.004 3.79751,0.33926 5.48013,1.18439 1.24095,0.6233 3.1188,1.97811 3.11883,2.25013 0,0.0753 -0.54134,0.75567 -1.20298,1.51203 l -1.20301,1.3752 -1.27476,-0.91583 c -4.38089,-3.14737 -9.635683,-1.90807 -11.758273,2.77311 -0.76618,1.68975 -0.76205,4.96062 0.008,6.66041 2.17244,4.79295 7.808563,5.98983 12.085213,2.56641 l 1.02021,-0.81667 1.32664,1.32665 1.32665,1.32665 -1.42081,1.12963 c -2.48653,1.976931 -3.90014,2.478391 -7.24165,2.568841 -2.321643,0.0628 -3.193333,-0.0218 -4.308953,-0.41823 z M -198.8031,57.06225 V 45.81746 l 2.05052,0.003 2.05052,0.003 3.40788,5.30808 3.40787,5.30809 1.88379,-2.92663 c 1.03609,-1.60965 2.57366,-3.99964 3.41684,-5.31108 l 1.53304,-2.38444 h 2.10498 2.10498 v 11.24479 11.244791 h -1.98438 -1.98437 V 60.3195 52.33195 l -3.50573,5.19963 c -1.92816,2.8598 -3.56526,5.20133 -3.63803,5.2034 -0.0728,0.002 -1.62057,-2.253 -3.43958,-5.01125 -1.81901,-2.75826 -3.39659,-5.01773 -3.50573,-5.02105 -0.10914,-0.003 -0.19844,3.50631 -0.19844,7.79917 v 7.805211 h -1.85208 -1.85208 z m 54.76875,0 V 45.81746 h 1.83636 1.83636 l 5.96885,7.69923 5.96885,7.69924 v -7.69924 -7.69923 h 1.98437 1.98438 v 11.24479 11.244791 h -1.65928 -1.65928 l -6.07978,-7.850251 -6.07979,-7.85025 -0.0701,7.85025 -0.0701,7.850251 h -1.98044 -1.98043 z m 30.69167,1.85208 v -9.39271 h -3.43959 -3.43958 v -1.85208 -1.85208 h 8.99584 8.99583 v 1.85208 1.85208 h -3.43958 -3.43959 v 9.39271 9.392711 h -2.11666 -2.11667 z m 24.870837,-1.87647 V 45.76867 l 6.28385,0.0951 c 5.86952,0.0889 6.37088,0.13492 7.60346,0.69877 1.66717,0.76263 2.45796,1.48956 3.07512,2.82677 0.99756,2.16147 0.40598,4.7871 -1.44473,6.41204 l -0.96951,0.85126 0.99412,0.5125 c 1.37446,0.70855 2.15961,1.50561 2.73822,2.77975 1.21177,2.66825 0.0254,5.93628 -2.64506,7.28681 -1.70895,0.864241 -3.61233,1.075351 -9.69537,1.075351 h -5.9401 z m 13.15854,7.22038 c 2.2429,-1.20109 2.13363,-4.11714 -0.18915,-5.04653 -0.82372,-0.32959 -1.99702,-0.42967 -5.03725,-0.42967 h -3.96339 v 3.07043 3.07043 l 4.16718,-0.10329 c 3.30171,-0.0818 4.34486,-0.19842 5.02261,-0.56137 z m -1.0764,-9.55482 c 1.59782,-0.96699 1.87804,-2.79889 0.64021,-4.18544 l -0.77139,-0.86407 -3.99111,-0.0852 -3.9911,-0.0852 v 2.95485 2.95485 l 3.63802,-0.0915 c 3.00807,-0.0757 3.78301,-0.17926 4.47537,-0.59826 z m 10.99987,2.42497 0.069,-11.17864 1.91823,-0.0777 1.91823,-0.0777 v 9.4043 9.4043 h 5.95312 5.95313 v 1.85208 1.852091 h -7.94039 -7.94036 z m 18.17862,10.583341 c 0.13041,-0.32743 2.32037,-5.357821 4.86656,-11.178651 l 4.62942,-10.58333 h 1.93518 1.93517 l 4.81983,10.98021 c 2.65092,6.03911 4.82595,11.069501 4.83341,11.178641 0.007,0.10914 -0.91453,0.19844 -2.04888,0.19844 h -2.0624 l -1.06069,-2.579691 -1.06069,-2.57969 h -5.38747 -5.38747 l -1.08056,2.57662 -1.08059,2.576611 -2.04395,0.003 c -2.01404,0.003 -2.04052,-0.006 -1.80687,-0.59224 z m 15.05151,-8.626151 c -0.87625,-2.24164 -3.55145,-8.24104 -3.6748,-8.24104 -0.12724,0 -2.819,6.05086 -3.61783,8.13256 -0.0995,0.25941 0.71117,0.33411 3.6263,0.33411 2.06499,0 3.71486,-0.10153 3.66633,-0.22563 z m 11.95036,-2.02333 V 45.81746 l 1.78593,0.002 1.78594,0.002 5.95313,7.70303 5.95312,7.70304 0.0702,-7.71698 0.0701,-7.71697 1.91424,0.0777 1.91420005,0.0777 0.069,11.17864 0.069,11.178651 H -2.341133 -4.057773 l -6.0253,-7.792491 c -3.31391,-4.28587 -6.11458,-7.79822 -6.22372,-7.80521 -0.10914,-0.007 -0.19844,3.49963 -0.19844,7.79249 v 7.805211 h -1.85208 -1.85208 V 57.06148 Z M -194.01194,35.75832 c -1.45076,-0.30566 -4.22607,-1.59097 -5.44833,-2.52324 l -0.9247,-0.7053 0.52324,-0.69835 c 0.28778,-0.38409 0.80957,-1.04153 1.15953,-1.46098 l 0.6363,-0.76264 0.89933,0.68596 c 1.77397,1.35306 3.85829,2.10803 5.88272,2.13078 2.2378,0.0252 3.46361,-0.51971 3.98691,-1.77213 0.79077,-1.89259 -0.1248,-3.03107 -3.148,-3.9144 -4.57241,-1.33598 -5.54162,-1.6833 -6.63855,-2.37895 -1.95769,-1.24153 -2.85323,-3.80322 -2.23317,-6.38795 0.44661,-1.86166 2.41661,-3.85892 4.44654,-4.50807 2.61103,-0.83498 6.07439,-0.48705 8.76702,0.88074 2.60379,1.32266 2.56392,1.23451 1.33491,2.9508 l -1.07136,1.49614 -1.48434,-0.89383 c -3.33117,-2.00592 -7.29025,-1.73446 -8.04472,0.5516 -0.57222,1.73386 0.43006,2.82109 3.4324,3.72328 4.69996,1.41231 5.5607,1.73711 6.60132,2.49093 1.47488,1.0684 2.20857,2.59941 2.20748,4.60643 -0.002,4.1006 -2.66724,6.47212 -7.47361,6.65053 -1.23693,0.0459 -2.77184,-0.0267 -3.41092,-0.16135 z m 66.55809,-0.27911 c -3.82567,-1.31601 -6.41839,-4.12324 -7.44367,-8.05955 -1.41727,-5.44126 1.22222,-10.97607 6.40519,-13.43119 1.70281,-0.80661 1.93977,-0.84705 4.96319,-0.84705 3.02341,0 3.26038,0.0404 4.96319,0.84705 5.95648,2.82152 8.34155,9.54191 5.52358,15.56376 -1.94414,4.15452 -5.80811,6.48695 -10.71308,6.46678 -1.4482,-0.006 -2.66113,-0.18299 -3.6984,-0.5398 z m 7.67576,-4.10902 c 6.52607,-4.03476 3.9376,-14.65595 -3.58054,-14.69191 -2.83281,-0.0135 -4.87441,1.01806 -6.35212,3.2097 -2.84769,4.22349 -1.02093,10.35096 3.59941,12.07343 0.64094,0.23894 1.72036,0.33803 3.03509,0.27861 1.70052,-0.0769 2.2499,-0.22174 3.29816,-0.86983 z m -61.03334,4.3283 c 0,-0.0479 2.18125,-5.08329 4.84723,-11.18978 l 4.84723,-11.10271 h 1.95722 1.95721 l 4.81962,10.98021 c 2.65079,6.03911 4.82754,11.0695 4.83722,11.17864 0.01,0.10914 -0.91434,0.19844 -2.05338,0.19844 h -2.07099 l -1.13946,-2.78349 -1.13947,-2.78349 -5.26968,0.0715 -5.26968,0.0715 -1.11761,2.64583 -1.11762,2.64584 -2.04392,0.0773 c -1.12416,0.0425 -2.04392,0.0381 -2.04392,-0.01 z m 15.34583,-9.01201 c 0,-0.0445 -0.66516,-1.62211 -1.47813,-3.50573 -0.81297,-1.88361 -1.65337,-3.84147 -1.86755,-4.35079 l -0.38942,-0.92604 -1.7018,3.95081 c -0.93599,2.17295 -1.77049,4.16724 -1.85444,4.43177 -0.14261,0.44933 0.0921,0.48096 3.56934,0.48096 2.0471,0 3.722,-0.0364 3.722,-0.081 z m 14.00445,4.39131 c -1.06916,-2.58897 -3.15132,-7.62424 -4.62701,-11.1895 l -2.68307,-6.48229 2.10964,-0.0774 c 1.1603,-0.0426 2.15864,-0.0284 2.21854,0.0315 0.0599,0.0599 1.54863,3.78565 3.30829,8.27946 1.75966,4.4938 3.28099,8.26144 3.38073,8.37253 0.0997,0.11108 1.66207,-3.60817 3.47186,-8.26501 l 3.29053,-8.46698 2.16629,-0.003 2.16629,-0.003 -1.81896,4.43177 c -1.00043,2.43748 -3.06776,7.46787 -4.59406,11.17865 l -2.77509,6.74687 -1.83503,0.077 -1.83502,0.077 -1.94393,-4.70721 z m 44.46847,-6.55929 V 13.27371 h 1.98438 1.98437 V 24.5185 35.76329 h -1.98437 -1.98438 z m 10.054167,0 V 13.27371 h 8.34646 8.34647 l -0.0782,1.78593 -0.0782,1.78594 -6.28386,0.0709 -6.28385,0.0709 v 2.77334 2.77333 h 5.55625 5.55625 v 1.85209 1.85208 h -5.55625 -5.55625 v 2.91042 2.91041 h 6.35 6.35 v 1.85209 1.85208 h -8.33438 -8.33437 z M -192.52033,3.2134603 c -1.60661,-0.40548 -3.491,-1.47764 -4.38341,-2.49404001 -2.09189,-2.38252999 -2.41804,-4.13768099 -2.42394,-13.04415129 l -0.005,-6.94531 h 1.96571 1.96571 l 0.0868,7.34219 c 0.0753,6.3718603 0.14959,7.4820503 0.56187,8.4005203 1.06809,2.379471 3.03106,3.48235099 5.75798,3.23508099 2.08156,-0.18875 3.4084,-1.04910999 4.2481,-2.75461099 0.60798,-1.23485 0.62998,-1.50522 0.71193,-8.7487003 l 0.0846,-7.47448 h 1.98692 1.98692 l -0.10545,7.73906 c -0.11852,8.6983303 -0.23813,9.4010513 -1.9928,11.70781129 -0.7198,0.94628001 -1.5062,1.57793001 -2.76217,2.21863001 -1.55789,0.79471 -2.03411,0.90547 -4.22338,0.98219 -1.35712,0.0476 -2.91447,-0.0263 -3.46077,-0.16419 z m 127.331817,0.10465 c -1.74808,-0.3363 -4.12919,-1.30431 -5.56218,-2.26123 l -1.58485,-1.05832001 0.52768,-0.70461 c 0.29025,-0.38753999 0.81791,-1.05263999 1.17258,-1.47800999 l 0.64487,-0.773391 1.40878,0.964561 c 1.88804,1.29273999 3.44154,1.80744999 5.51846,1.82842999 2.55083,0.0258 3.84903,-0.75381 4.12907,-2.47945099 0.10686,-0.65859 -0.004,-1.07055 -0.43413,-1.61778 -0.69427,-0.88262 -1.58422,-1.27496 -4.88456,-2.15338 -3.96607,-1.05562 -6.03758,-2.34869 -6.73973,-4.2070903 -0.47453,-1.25594 -0.34636,-4.04374 0.23863,-5.19041 0.71562,-1.40273 2.50455,-2.86314 4.08048,-3.33114 1.85629,-0.55126 4.7941,-0.49575 6.81485,0.12876 1.51643,0.46866 4.19505,1.9066 4.19505,2.25201 0,0.24502 -1.89622,2.78472 -2.07534,2.77961 -0.0955,-0.003 -0.97705,-0.41211 -1.95905,-0.90975 -2.91238,-1.47591 -5.24082,-1.55867 -6.80575,-0.24187 -0.66111,0.55631 -0.80153,0.8717 -0.80153,1.80055 0,1.70408 0.8981,2.30762 5.08955,3.4202203 5.45346,1.4476 7.17675,3.04182 7.18995,6.65143 0.006,1.482871 -0.1234,2.086971 -0.64627,3.03035099 -0.75507,1.36242001 -2.48129,2.77432001 -3.90086,3.19057001 -1.11694,0.32752 -4.61785,0.55192 -5.6157,0.35994 z M -174.72602,-8.0368407 V -19.293221 l 1.90659,0.0777 1.90659,0.0777 5.83247,7.52692 5.83248,7.5269103 0.0702,-7.5930603 0.0702,-7.59306 h 1.98032 1.98031 v 11.2447903 11.244791 l -1.65364,-0.003 -1.65365,-0.003 -6.08541,-7.868421 -6.08542,-7.8684103 -0.0701,7.8713503 -0.0701,7.871361 h -1.98044 -1.98044 v -11.256381 z m 25.57639,11.079991 c -0.097,-0.097 -0.17639,-5.15717 -0.17639,-11.244791 V -19.270041 h 1.98438 1.98437 v 11.2447903 11.244791 h -1.80798 c -0.9944,0 -1.88736,-0.0794 -1.98438,-0.17639 z m 12.72987,-10.601841 c -2.43317,-5.9319203 -4.50168,-10.9987203 -4.59668,-11.2595603 -0.1586,-0.43546 0.007,-0.46792 2.02843,-0.39687 l 2.20116,0.0774 3.29723,8.4028 c 1.81348,4.6215403 3.34988,8.3501613 3.41421,8.2858213 0.0643,-0.0643 1.57643,-3.845591 3.36021,-8.4027913 l 3.24323,-8.28583 2.15423,-0.0769 c 1.18482,-0.0423 2.1526,-0.0423 2.1506,0 -0.002,0.0423 -2.06257,5.07747 -4.57905,11.1893503 l -4.57543,11.112501 -1.8371,0.0697 -1.83709,0.0697 z m 21.1368,10.601841 c -0.097,-0.097 -0.17639,-5.15717 -0.17639,-11.244791 V -19.270041 h 8.33438 8.334367 v 1.715 1.715 l -6.283847,0.0709 -6.28386,0.0709 -0.0751,2.84427 -0.0751,2.84427 h 5.6975 5.69749 v 1.8520903 1.85208 h -5.68854 -5.68855 v 2.91042 2.91041099 h 6.4823 6.482287 v 1.85209001 1.85208 h -8.290277 c -4.55965,0 -8.36965,-0.0794 -8.46667,-0.17639 z m 21.431247,0 c -0.097,-0.097 -0.17639,-5.15717 -0.17639,-11.244791 V -19.270041 h 5.90511 c 4.64977,0 6.20902,0.0902 7.33476,0.42456 3.26884,0.97074 5.1155,3.29548 5.12653,6.45377 0.003,0.94635 -0.15494,2.18686 -0.35166,2.7567003 -0.47574,1.37819 -2.1259,3.12789 -3.52308,3.73566 -0.62161,0.27039 -1.17205,0.52 -1.2232,0.55469 -0.0512,0.0347 1.22877,1.90718 2.84427,4.161101 1.6155,2.25393 2.93728,4.17132 2.93728,4.26088 0,0.0896 -1.03744,0.12842 -2.30537,0.0864 l -2.30539,-0.0764 -2.75453,-3.91210001 -2.75453,-3.91210099 -2.41457,0.0756 -2.41457,0.0756 -0.0732,3.90261099 -0.0732,3.90260001 h -1.80092 c -0.9905,0 -1.88028,-0.0794 -1.9773,-0.17639 z m 11.32058,-11.494021 c 0.57525,-0.15971 1.43845,-0.68292 1.91823,-1.1627 0.77387,-0.7738703 0.87231,-1.0354803 0.87231,-2.3182903 0,-1.08269 -0.14412,-1.6292 -0.57359,-2.17519 -0.96025,-1.22075 -1.94472,-1.45883 -6.0325,-1.45883 h -3.71267 v 3.70417 3.7041703 l 3.24115,-0.002 c 1.78263,-7.9e-4 3.71181,-0.13215 4.28707,-0.29185 z m 32.42387,0.42562 V -19.270041 h 1.98437 1.98438 v 11.2447903 11.244791 h -1.98438 -1.98437 z m 15.34583,1.85208 v -9.3927103 h -3.57187 -3.57188 v -1.85208 -1.85208 h 9.12813 9.12812 v 1.85208 1.85208 h -3.57187 -3.57188 v 9.3927103 9.392711 h -1.98437 -1.98438 z m 15.34584,-1.85208 V -19.270041 h 8.33437 8.33438 v 1.71979 1.71979 h -6.35 -6.35 v 2.91042 2.91041 h 5.55625 5.55625 v 1.8520903 1.85208 h -5.55625 -5.55625 v 2.91042 2.91041099 h 6.35 6.35 v 1.85209001 1.85208 h -8.33438 -8.33437 z M -276.82193,-19.997601 c -0.5988,-0.6053 -0.79971,-1.19457 -1.19526,-3.505716 -0.26151,-1.52797 -0.88095,-5.07814 -1.37652,-7.88926 -0.49558,-2.81112 -0.90106,-5.56327 -0.90106,-6.11588 0,-1.90754 1.7387,-3.10356 3.46954,-2.38662 0.96164,0.39832 1.41833,1.23165 1.79672,3.27854 0.57547,3.11304 2.89192,4.55971 6.92709,4.32612 1.70038,-0.0984 2.30207,-0.25964 3.3408,-0.89508 1.47413,-0.9018 2.45752,-2.56591 2.45752,-4.15868 0,-0.82439 0.18534,-1.21407 0.93306,-1.96179 0.82527,-0.82527 1.04523,-0.91486 1.90401,-0.7755 1.47483,0.23933 2.17605,1.11378 2.45058,3.05597 0.43532,3.07977 2.26534,4.53117 5.96979,4.73469 1.78824,0.0982 2.35009,0.022 3.50765,-0.47597 1.6771,-0.72147 2.87969,-2.02649 3.10064,-3.36474 0.3805,-2.30457 0.76071,-3.10023 1.72931,-3.61883 1.63045,-0.87298 3.68829,0.22187 3.68829,1.96232 0,1.14579 -2.60128,16.104826 -2.95778,17.009156 -0.60493,1.53451 -0.29995,1.50888 -17.95151,1.50888 h -16.17308 z m 30.62551,-5.935706 c 0.15851,-0.89993 0.26054,-1.6612 0.2267,-1.69172 -0.0338,-0.0305 -0.83541,0.10799 -1.7813,0.3078 -4.00375,0.84576 -7.9044,-0.003 -10.84481,-2.35966 l -1.18752,-0.95178 -0.79685,0.7369 c -1.70628,1.5779 -4.07568,2.55819 -6.87686,2.84518 -1.49244,0.15291 -4.45111,-0.16823 -5.59538,-0.60732 -0.38253,-0.1468 -0.41342,-0.008 -0.25218,1.13176 0.10106,0.71447 0.24452,1.50739 0.3188,1.76205 0.12628,0.43297 0.99065,0.46303 13.31811,0.46303 h 13.18307 z m 233.659987,4.678056 c 0,-0.0733 0.74414,-1.08923 1.65365,-2.257726 1.82256,-2.34156 1.72154,-2.30931 4.03233,-1.28714 1.05876,0.46835 1.22031,0.62437 0.89845,0.86776 -0.21583,0.16321 -1.12173,0.86229 -2.01311,1.553506 -1.48982,1.15528 -1.73985,1.25678 -3.096,1.25678 -0.81142,0 -1.47532,-0.0599 -1.47532,-0.13318 z"
         id="path1613"
         inkscape:connector-curvature="0"
         sodipodi:nodetypes="csccccccccccccscsccscscccccccscsccccsscccccscsccscccssccccscsccscccccscccccsscccccccccccccsccccccccccccccccccccccccccccsccccccccccccccccccccccccccccccccccccccccccccccccccccsccccsccccccsccccccccccccccccccccccccccccscccccccccccscscccccccccccccccscsccccccccscccccsccssccccccccccscscsccsccccscscccscsccccccccccccscscscccsccsscscccssccccccccccccccccccccccccccccccccccccccccscccccsscccccsscccccccccccccccccccscccsscccccccccccccccccccccccccccscccccscscccsccccsccccscscccccccccccccccccccccscccscsccccccsscccccccscccsscsccccccccccccccccccccccccccccccccccccccccccccccccccccccccccscsccccsssccsccscsccccccccccccsccsccscss" />
      <path
         style="fill:#ef3340;fill-opacity:1;stroke-width:0.26458332"
         d="m -270.68674,10.37646 c -1.32883,-0.8102497 -1.50524,-1.3940697 -1.62292,-5.3709797 l -0.10766,-3.63802 h 4.79253 4.79252 v 4.7625 4.7624997 l -3.50572,-10e-4 c -3.00451,-7.5e-4 -3.62626,-0.0745 -4.34875,-0.51497 z m 13.93989,-4.2464997 v -4.7625 h 4.7625 4.7625 v 3.58501 c 0,3.99256 -0.24395,4.84833 -1.57884,5.5386297 -0.58171,0.30082 -1.67417,0.40136 -4.36115,0.40136 h -3.58501 z m -15.55038,-15.54427 0.0722,-4.6963603 4.69637,-0.0722 4.69634,-0.0722 v 4.7686103 4.7686 h -4.7686 -4.76861 z m 15.55038,-0.0661 V -14.24291 h 4.7625 4.7625 v 4.7625003 4.7625 h -4.7625 -4.7625 z"
         id="path1613-3"
         inkscape:connector-curvature="0"
         sodipodi:nodetypes="ccccccccccccccscscccccccccccccccccccc" />
    </g>
  </g>
</svg>
